<svg version="1.1" id="Layer_1" xmlns="http://www.w3.org/2000/svg" xmlns:xlink="http://www.w3.org/1999/xlink" x="0px" y="0px"
	 width="100%" viewBox="0 0 1024 1024" enable-background="new 0 0 1024 1024" xml:space="preserve">
<path fill="#000000" opacity="1.000000" stroke="none" 
	d="
M454.833893,203.100922 
	C465.283661,210.943039 472.296906,220.795944 476.472931,232.809570 
	C477.793854,236.609589 477.527100,238.809280 473.445312,240.625793 
	C461.106506,246.116943 449.231567,252.534271 437.894165,259.900330 
	C435.976501,261.146271 433.971741,261.460693 431.736786,261.459564 
	C353.237061,261.420105 274.737366,261.419189 196.237640,261.414520 
	C188.990463,261.414062 188.992325,261.419159 188.993073,268.502930 
	C189.006973,399.334503 188.998215,530.166077 189.064072,660.997620 
	C189.071686,676.121887 187.572632,673.590271 201.880661,673.604980 
	C286.880371,673.692322 371.880463,673.747681 456.879425,673.485168 
	C464.819153,673.460632 470.729767,677.572937 477.452118,680.160645 
	C478.822327,680.688049 479.236664,681.993530 479.308441,683.435791 
	C480.223663,701.830444 477.866180,719.362732 465.949982,734.388977 
	C453.381348,750.237915 436.761414,758.996948 416.771332,759.153992 
	C356.941895,759.624146 297.094116,760.049927 237.277756,759.046021 
	C200.548416,758.429504 176.545837,728.758667 176.587250,697.939270 
	C176.698990,614.773376 176.596329,531.607117 176.692383,448.441223 
	C176.698120,443.475586 176.809128,439.795929 169.984100,439.952698 
	C165.352997,440.059082 161.949387,435.655273 161.749451,430.769501 
	C161.511169,424.945984 161.518677,419.099731 161.725739,413.274200 
	C161.923859,407.699707 165.699265,404.177582 172.030716,403.992218 
	C175.513367,403.890289 176.924652,402.853699 176.525055,399.347015 
	C176.338242,397.707581 176.437057,396.002075 176.647263,394.357300 
	C177.277939,389.422211 176.162125,386.753937 170.215668,386.667297 
	C164.533783,386.584564 161.786163,382.786774 161.683395,376.991516 
	C161.588852,371.659943 161.585129,366.323761 161.687515,360.992432 
	C161.799271,355.173157 165.158218,351.617340 171.068558,351.764954 
	C175.526337,351.876251 177.178986,350.273499 176.644394,345.950287 
	C176.441498,344.309570 176.487854,342.607422 176.655884,340.957245 
	C177.121567,336.383911 176.027374,333.955200 170.541794,334.105927 
	C165.307236,334.249786 161.802734,329.929871 161.687424,324.587585 
	C161.575958,319.423401 161.559952,314.252106 161.695068,309.088989 
	C161.849991,303.168518 165.141785,299.597748 171.006256,299.754333 
	C175.731659,299.880493 176.637482,297.605347 176.621994,293.665771 
	C176.564362,278.999695 176.795227,264.331238 176.619675,249.667206 
	C176.297516,222.757568 196.726624,196.921722 226.865891,191.648682 
	C231.314758,190.870346 235.773972,190.631226 240.284515,190.634018 
	C298.951019,190.670288 357.617523,190.664169 416.284027,190.659393 
	C430.346069,190.658249 443.226654,194.320847 454.833893,203.100922 
M312.503357,708.428894 
	C307.838104,708.434875 303.167419,708.300659 298.509003,708.481995 
	C292.557343,708.713684 289.318420,711.582153 289.366394,716.222473 
	C289.414398,720.865479 292.750854,723.587158 298.713959,723.622681 
	C309.043976,723.684204 319.374542,723.647339 329.704895,723.645081 
	C339.701965,723.642944 349.699036,723.646484 359.696045,723.617676 
	C362.949829,723.608276 365.636169,722.314392 367.042603,719.328918 
	C368.233734,716.800354 368.101990,714.093628 366.440643,711.719482 
	C364.385559,708.782471 361.255951,708.418579 357.989319,708.422241 
	C343.160278,708.438782 328.331268,708.429199 312.503357,708.428894 
M354.413940,234.684280 
	C356.741394,234.669617 359.082367,234.809158 361.393280,234.606354 
	C365.484131,234.247330 367.973236,231.302109 367.804688,227.195618 
	C367.634644,223.052368 365.347290,220.463394 361.303314,220.437103 
	C339.690796,220.296600 318.076569,220.312622 296.463684,220.420944 
	C292.155762,220.442520 289.788605,223.188324 289.431427,227.375549 
	C289.066895,231.649277 292.394806,234.635956 297.575958,234.652832 
	C316.196899,234.713470 334.818115,234.680176 354.413940,234.684280 
z"/>
<path fill="#000000" opacity="1.000000" stroke="none" 
	d="
M660.466187,735.485718 
	C652.357544,726.169495 648.630737,715.649780 648.654419,703.652954 
	C648.723755,668.512939 648.668640,633.372742 648.700745,598.232605 
	C648.702515,596.301208 648.202637,594.245361 649.937317,591.788940 
	C695.641052,614.619446 741.788574,614.225891 787.429199,592.035950 
	C789.504333,594.126282 788.954651,596.049744 788.957214,597.809631 
	C789.007996,632.283203 788.443604,666.769653 789.209900,701.226746 
	C790.019226,737.620789 757.910278,755.134766 734.500061,755.380798 
	C725.507812,755.475342 716.510254,755.247681 707.521362,755.447083 
	C688.941956,755.859253 673.479065,749.053528 660.466187,735.485718 
z"/>
<path fill="#000000" opacity="1.000000" stroke="none" 
	d="
M615.201904,550.781616 
	C595.871399,529.207642 584.356934,504.386383 580.580872,476.018982 
	C576.150452,442.736145 581.665344,411.223999 599.229797,382.510712 
	C620.885437,347.109497 652.438843,324.774445 693.384277,317.827271 
	C747.899475,308.577698 793.267639,326.534912 828.443909,368.742279 
	C847.711731,391.861267 857.266602,419.256927 858.577209,449.578613 
	C860.099121,484.788483 850.752808,516.406128 828.617737,543.898743 
	C807.850220,569.692810 781.240845,586.848999 748.770447,593.494507 
	C696.659058,604.159851 652.150635,589.482422 615.201904,550.781616 
M810.114746,384.381165 
	C784.670349,353.605988 752.095093,338.577759 712.085388,340.244843 
	C685.245728,341.363220 661.685242,351.201691 641.988159,369.175476 
	C605.194031,402.750336 592.873230,452.558289 611.620117,498.685333 
	C629.671021,543.100037 663.939148,568.177429 711.820251,572.380127 
	C740.386169,574.887451 766.494080,566.078674 789.200500,548.356812 
	C815.590637,527.759949 831.172424,500.597107 834.379089,467.374176 
	C837.300415,437.107483 829.364075,409.282074 810.114746,384.381165 
z"/>
<path fill="#000000" opacity="1.000000" stroke="none" 
	d="
M789.036133,259.000000 
	C789.036560,279.615723 789.036560,299.731476 789.036560,321.276337 
	C742.061279,298.101501 695.755371,297.309601 649.738647,320.246277 
	C648.207703,317.521667 648.692261,315.316284 648.690002,313.204651 
	C648.659851,284.872833 648.801086,256.540253 648.635376,228.209381 
	C648.526184,209.542099 657.300659,196.105469 672.684692,186.678024 
	C682.630188,180.583405 693.552246,177.322510 705.424377,177.605347 
	C714.418762,177.819641 723.422363,177.629715 732.421814,177.652023 
	C751.237549,177.698685 766.535828,185.166519 778.728027,199.406799 
	C786.688965,208.705093 788.812622,219.796722 788.995667,231.501862 
	C789.136353,240.499252 789.031372,249.500473 789.036133,259.000000 
z"/>
<path fill="#000000" opacity="1.000000" stroke="none" 
	d="
M508.098389,682.143494 
	C468.984802,670.258423 434.636749,650.771545 405.024200,623.172485 
	C369.101379,589.692200 343.870605,549.613953 331.206635,501.929993 
	C330.950806,500.966858 330.727509,499.992096 330.554352,499.011261 
	C330.470978,498.539062 330.540009,498.039978 330.540009,497.100464 
	C339.160339,495.501404 347.959259,494.303986 355.521790,487.844055 
	C357.955414,495.238953 359.982361,501.833618 362.285858,508.330200 
	C384.440002,570.811401 426.562042,615.192749 485.817902,643.748718 
	C511.708649,656.225769 539.215149,662.788086 567.921570,664.853210 
	C588.242310,666.315186 608.547791,665.354675 628.856934,665.581238 
	C633.645630,665.634644 635.439392,667.048706 635.148621,671.864624 
	C634.817688,677.344971 634.940857,682.862061 635.077271,688.357971 
	C635.164246,691.863892 634.054260,693.483215 630.219666,693.415161 
	C606.573792,692.995300 582.888000,694.405701 559.284058,692.229309 
	C542.033936,690.638672 525.084473,687.275452 508.098389,682.143494 
z"/>
<path fill="#000000" opacity="1.000000" stroke="none" 
	d="
M418.338257,282.302338 
	C453.885620,253.512253 494.043152,235.482864 538.497314,227.009659 
	C559.645874,222.978638 581.094116,222.270889 602.594421,222.596115 
	C611.239990,222.726898 619.912842,223.126465 628.543518,222.018616 
	C633.028137,221.442963 635.409668,222.905930 635.116760,228.002472 
	C634.782715,233.813980 634.936768,239.663895 635.109009,245.490326 
	C635.218018,249.176422 633.736267,250.402100 630.078369,250.375580 
	C613.258850,250.253632 596.451355,250.620514 579.632141,251.202728 
	C528.068604,252.987610 481.876312,269.397949 441.075653,300.930664 
	C404.988098,328.820831 379.778839,364.880371 362.115295,406.562653 
	C361.726044,407.481140 361.335266,408.407562 360.838470,409.268677 
	C360.517059,409.825775 360.000977,410.270538 359.226532,411.164581 
	C352.094025,405.779510 344.129578,402.293304 334.321655,401.112000 
	C352.439301,353.970673 379.799042,314.436279 418.338257,282.302338 
z"/>
<path fill="#000000" opacity="1.000000" stroke="none" 
	d="
M478.999878,461.338196 
	C443.173157,461.336548 407.846191,461.394867 372.520081,461.250092 
	C368.525696,461.233734 366.293182,462.325470 364.464478,466.072876 
	C356.954834,481.461517 340.769806,490.203369 324.300568,488.225342 
	C307.202271,486.171722 293.308624,473.807373 290.166992,456.364197 
	C285.466156,430.264526 304.539978,408.426514 329.921417,409.472321 
	C346.550812,410.157501 358.615997,418.038818 365.484100,433.382202 
	C366.472931,435.591278 367.650482,436.757538 370.289276,436.753113 
	C419.779602,436.670227 469.270111,436.673279 518.760559,436.642487 
	C519.396301,436.642090 520.031921,436.436584 521.151123,436.243347 
	C519.134460,432.012390 515.301392,429.753754 512.712341,426.476868 
	C507.617310,420.028168 509.657043,412.429962 517.119629,410.146942 
	C520.746033,409.037506 523.914795,410.294220 526.308044,412.663757 
	C537.553833,423.798218 548.593994,435.140045 559.745300,446.370483 
	C561.578125,448.216278 561.317993,449.675110 559.576721,451.433563 
	C548.559387,462.559509 537.678711,473.821899 526.587708,484.873322 
	C522.306091,489.139587 516.422791,489.132629 512.698975,485.378967 
	C508.750763,481.399139 508.759399,476.123901 512.727966,471.457306 
	C515.382019,468.336517 518.780701,465.853516 521.545349,461.338196 
	C506.990234,461.338196 493.245056,461.338196 478.999878,461.338196 
M311.493378,443.104980 
	C307.682251,452.786285 314.876099,463.562286 323.349335,466.348633 
	C332.134796,469.237732 342.384766,464.752625 346.200073,456.136749 
	C350.209381,447.082825 346.108154,436.532593 336.903870,432.222595 
	C327.076263,427.620789 316.732391,431.801514 311.493378,443.104980 
z"/>
<path fill="#000000" opacity="1.000000" stroke="none" 
	d="
M465.655212,604.999268 
	C465.654816,561.890442 465.638885,519.281494 465.698853,476.672607 
	C465.701935,474.478607 464.532440,471.309906 467.062042,470.313324 
	C470.432251,468.985626 474.361969,469.097809 477.840576,470.263580 
	C480.155487,471.039368 479.305725,473.722778 479.310577,475.605835 
	C479.363403,496.077942 479.343597,516.550232 479.343872,537.022522 
	C479.344269,565.650391 479.356171,594.278320 479.322388,622.906189 
	C479.319885,625.031189 479.751556,627.233582 478.744293,629.272217 
	C469.666687,628.633240 465.658997,624.550232 465.657440,615.984985 
	C465.656799,612.489685 465.656006,608.994385 465.655212,604.999268 
z"/>
<path fill="#000000" opacity="1.000000" stroke="none" 
	d="
M465.657318,310.004395 
	C465.657410,307.508881 465.657562,305.512054 465.657959,303.515259 
	C465.660034,293.677826 468.236053,290.575439 478.460358,288.216217 
	C479.949707,290.074982 479.311920,292.311920 479.313904,294.366486 
	C479.354431,336.632172 479.344727,378.897858 479.335785,421.163574 
	C479.334351,427.961975 479.313995,427.961945 472.873840,427.968658 
	C465.753937,427.976074 465.670410,427.925751 465.668274,421.325806 
	C465.656342,384.384918 465.659485,347.444000 465.657318,310.004395 
z"/>
<path fill="#000000" opacity="1.000000" stroke="none" 
	d="
M869.729980,473.021759 
	C871.903625,459.844025 870.119690,447.129089 869.353210,434.199554 
	C873.554382,433.505249 877.514465,432.940125 881.309265,434.434753 
	C885.722229,436.172791 888.182007,439.634430 888.272156,444.418152 
	C888.403564,451.393433 888.448181,458.375977 888.284851,465.349701 
	C888.095093,473.452301 880.021851,479.213257 872.163696,477.187439 
	C870.012634,476.632965 869.755005,475.224884 869.729980,473.021759 
z"/>
<path fill="#000000" opacity="1.000000" stroke="none" 
	d="
M696.199280,426.806122 
	C701.621094,432.247986 706.977600,437.269806 711.889038,442.694611 
	C714.890259,446.009521 716.836731,445.837769 719.896423,442.694214 
	C733.948181,428.256836 748.234009,414.047302 762.412048,399.732422 
	C764.669373,397.453308 766.999695,395.362823 770.304077,394.790955 
	C775.718384,393.853912 780.561340,396.064301 783.025513,400.595734 
	C785.523865,405.190033 784.696899,411.053986 780.543518,415.288452 
	C770.282593,425.749756 759.896606,436.088409 749.549133,446.464691 
	C741.435852,454.600616 733.350586,462.765167 725.166992,470.829956 
	C719.173096,476.736847 712.228821,476.935211 706.197144,470.990021 
	C690.188293,455.210480 674.294434,439.312378 658.503357,423.314789 
	C653.122009,417.863068 652.933594,409.904480 657.559631,405.368744 
	C662.705627,400.323212 669.770630,400.644562 675.774536,406.463043 
	C682.589050,413.067139 689.229919,419.850586 696.199280,426.806122 
z"/>
</svg>